<svg xmlns="http://www.w3.org/2000/svg" viewBox="0 0 1000 1000" fill="#000">
  <path d="M739 331c2-4 3-8 3-13 0-26 0-54-8-79-4-15-16-25-31-25-17 1-35 16-33 33l3 26c-77-69-157-135-239-200-11-9-28-15-42-5C241 181 172 365 53 507c-20 23 7 67 35 46 141-109 189-296 323-411 70 55 139 113 206 172 60 54 143 116 178 192 12 26 48 15 56-8 19-53-60-123-112-167z"/>
  <path d="M768 531c-16-43-84-25-68 19 36 103 36 219 31 328-64 2-127 11-191 20-6-63-21-131-71-174-8-6-19-4-21 6-17 59 0 120 3 180-74 9-147 14-221 4-15-121-17-243-49-361-6-23-41-18-41 6-1 132 5 265 23 396 2 11 15 23 26 25 193 35 383-33 576-30 21 0 35-17 36-36 7-125 11-264-33-383zM468 758c33 39 41 93 46 144l-45 6c4-50-8-100-1-150zm195-630 5-2 18-3c17-5 19-34 0-37-34-6-71 18-64 55 2 13 13 25 25 29 14 6 25 0 38-5 5-2 4-10-1-9-8 0-14-4-20-10l-3-3-1-1-1-1-1-2-1-3v-1l1-2 1-1v-1l2-2c-3 3 1 0 2-1zm84-118c-30 0-39 32-39 57 0 15 22 17 26 3 2-7 5-13 9-20 2-3 3-3 4-3 17 4 22 24 39 27 7 1 16-2 17-10 4-27-29-54-56-54zm206 87c-6-53-61-81-107-53-11 8-3 23 9 21 27-4 56 3 59 35 1 13-4 23-13 31-14 13-35 4-49 17-7 7-6 18 0 24 20 22 60 3 78-11 18-15 26-41 23-64zm-88 94c-6-7-19 1-16 9 4 9 7 17 4 27l-3 4-1 1-1 1-2 1-4 1-3 1h-2l-4-1-12-4c-5-2-11-2-17 0-7 2-13 9-13 16 0 21 21 29 38 31 13 2 29-3 39-12 25-21 15-53-3-75z"/>
  <path d="M382 617c-2-7-9-12-16-12-30 0-66-3-94 9-8 4-9 13-6 19-9 55-6 112 6 166 1 6 7 11 13 10 39 0 93-5 109-48 17-44-3-100-12-144zm-28 21 9 42h-22c-3-14-7-28-12-41l25-1zm-41 2 6 43-33 3-5-44 32-2zm-16 141c-5-25-8-50-10-75l36-1c3 19 7 38 12 56 2 7 8 10 13 9-14 9-34 11-51 11zm72-43c-1 9-4 17-9 23v-6l-13-53 20-2 2 38zm303-119c1-5 0-10-3-13l-1-1c-1-2-3-3-5-3-32-9-65-3-97-3-9 0-16 7-16 16l-2 143c0 12 11 19 22 17 34-7 67-10 101-7 9 1 17-8 17-16-2-45-10-89-16-133zm-13 10-2 48-23-1c-1-16-3-32-7-48l32 1zm-51 0v49l-26 4v-52l26-1zm-25 108-1-39 25 3c0 11 0 22 3 33l-27 3zm50-4c3-10 3-20 3-30h20v31l-23-1z"/>
</svg>